<svg width="65" height="65" viewBox="0 0 65 65" fill="none" xmlns="http://www.w3.org/2000/svg">
<rect x="8" y="4" width="56" height="56" rx="28" fill="#EDEDF8"/>
<rect x="1" y="1" width="63" height="63" rx="31.5" stroke="#5077F8" stroke-width="2"/>
<circle cx="20.9194" cy="20.9195" r="2.98851" fill="#5077F8"/>
<circle cx="41.8391" cy="20.9195" r="2.98851" fill="#5077F8"/>
<path d="M17.6891 46.4926C17.1542 46.1308 17.0112 45.4014 17.4045 44.8892C19.8485 41.7066 23.2251 39.3503 27.0771 38.1594C30.9291 36.9685 35.0464 37.0078 38.8603 38.2557C39.474 38.4566 39.7676 39.1394 39.5302 39.74C39.2929 40.3405 38.6145 40.6309 37.9992 40.4351C34.682 39.3799 31.1113 39.3599 27.7679 40.3936C24.4244 41.4272 21.4881 43.459 19.3453 46.2023C18.9478 46.7112 18.224 46.8544 17.6891 46.4926Z" fill="#5077F8"/>
</svg>
